<svg width="53" height="24" viewBox="0 0 53 24" fill="none" xmlns="http://www.w3.org/2000/svg">
<rect width="53" height="24" rx="6" fill="black"/>
<path d="M6.14 17L8.604 12.324L6.28 7.9H8.968L9.584 9.384C9.68667 9.59867 9.78467 9.832 9.878 10.084C9.98067 10.3267 10.0973 10.5973 10.228 10.896H10.284C10.3867 10.5973 10.4847 10.3267 10.578 10.084C10.6713 9.832 10.76 9.59867 10.844 9.384L11.376 7.9H13.952L11.628 12.436L14.092 17H11.404L10.676 15.376C10.564 15.1333 10.4567 14.8907 10.354 14.648C10.2513 14.4053 10.144 14.144 10.032 13.864H9.976C9.87333 14.144 9.77533 14.4053 9.682 14.648C9.58867 14.8907 9.49067 15.1333 9.388 15.376L8.716 17H6.14ZM16.8345 17V13.864L14.0905 7.9H16.6665L17.3385 9.804C17.4505 10.1493 17.5625 10.4853 17.6745 10.812C17.7865 11.1387 17.9031 11.4793 18.0245 11.834H18.0805C18.2018 11.4793 18.3185 11.1387 18.4305 10.812C18.5518 10.4853 18.6731 10.1493 18.7945 9.804L19.4665 7.9H21.9865L19.2425 13.864V17H16.8345ZM22.0203 17V15.544L25.7443 9.916H22.3843V7.9H28.7123V9.356L24.9883 14.984H28.7403V17H22.0203ZM36.6949 17.168C35.4162 17.168 34.4642 16.7993 33.8389 16.062C33.2229 15.3153 32.9149 14.1627 32.9149 12.604V7.9H35.3229V12.884C35.3229 13.696 35.4302 14.27 35.6449 14.606C35.8689 14.9327 36.2189 15.096 36.6949 15.096C37.1709 15.096 37.5209 14.9327 37.7449 14.606C37.9782 14.27 38.0949 13.696 38.0949 12.884V7.9H40.4189V12.604C40.4189 14.1627 40.1156 15.3153 39.5089 16.062C38.9022 16.7993 37.9642 17.168 36.6949 17.168ZM42.3771 17V7.9H44.7851V17H42.3771Z" fill="white"/>
</svg>
